<?xml version="1.0" encoding="UTF-8"?>
<svg xmlns="http://www.w3.org/2000/svg" viewBox="0 0 207.65 240.02">
<path fill="#1f2937" d="m0,136.01C0,109.84,0,83.68,0,57.51c0-15.39,10.1-25.5,25.46-25.5,36.27,0,72.54,0,108.8,0,15.38,0,25.46,10.09,25.46,25.5,0,52.33,0,104.66,0,156.99,0,15.41-10.08,25.5-25.46,25.51-36.27,0-72.54,0-108.8,0C10.1,240.01,0,229.89,0,214.5c0-26.17,0-52.33,0-78.5Z"/>
<path  fill="#1f2937" d="m175.69,208.01c0-1.48,0-2.57,0-3.65,0-49.33.02-98.67-.01-148-.01-19.6-13.11-35.67-32.25-39.56-2.91-.59-5.94-.76-8.92-.76-27.28-.06-54.57-.03-81.85-.03h-3.3c3.36-8.45,9.21-13.56,17.77-15.47,1.85-.41,3.79-.52,5.69-.52C109.43,0,146.03,0,182.63.01c14.65,0,25,10.34,25.01,25,.02,52.67.02,105.33,0,158,0,14.65-10.36,24.96-25.01,25-2.23,0-4.45,0-6.93,0Z"/>
</svg>